<?xml version="1.0" encoding="UTF-8" standalone="no"?>
<!DOCTYPE svg PUBLIC "-//W3C//DTD SVG 1.1//EN"
 "http://www.w3.org/Graphics/SVG/1.1/DTD/svg11.dtd">
<!-- Generated by graphviz version 2.43.0 (0)
 -->
<!-- Title: 1 Pages: 1 -->
<svg width="264pt" height="346pt"
 viewBox="0.00 0.00 263.56 346.08" xmlns="http://www.w3.org/2000/svg" xmlns:xlink="http://www.w3.org/1999/xlink">
<g id="graph0" class="graph" transform="scale(1 1) rotate(0) translate(4 342.08)">
<title>1</title>
<polygon fill="white" stroke="transparent" points="-4,4 -4,-342.08 259.56,-342.08 259.56,4 -4,4"/>
<!-- n9 -->
<g id="node1" class="node">
<title>n9</title>
<ellipse fill="none" stroke="black" cx="35.82" cy="-305.47" rx="23" ry="23"/>
<text text-anchor="middle" x="35.82" y="-301.77" font-family="Times,serif" font-size="14.00">n9</text>
</g>
<!-- n10 -->
<g id="node2" class="node">
<title>n10</title>
<ellipse fill="none" stroke="black" cx="153.02" cy="-309.49" rx="28.7" ry="28.7"/>
<text text-anchor="middle" x="153.02" y="-305.79" font-family="Times,serif" font-size="14.00">n10</text>
</g>
<!-- n9&#45;&#45;n10 -->
<g id="edge1" class="edge">
<title>n9&#45;&#45;n10</title>
<path fill="none" stroke="black" d="M58.7,-306.25C77.49,-306.9 104.19,-307.81 124.39,-308.5"/>
</g>
<!-- n8 -->
<g id="node3" class="node">
<title>n8</title>
<ellipse fill="none" stroke="black" cx="79.56" cy="-97.21" rx="23" ry="23"/>
<text text-anchor="middle" x="79.56" y="-93.51" font-family="Times,serif" font-size="14.00">n8</text>
</g>
<!-- n8&#45;&#45;n9 -->
<g id="edge3" class="edge">
<title>n8&#45;&#45;n9</title>
<path fill="none" stroke="black" d="M74.88,-119.5C66.49,-159.48 48.96,-242.94 40.54,-283.03"/>
</g>
<!-- n8&#45;&#45;n10 -->
<g id="edge2" class="edge">
<title>n8&#45;&#45;n10</title>
<path fill="none" stroke="black" d="M87.01,-118.73C100.47,-157.63 128.82,-239.54 143.6,-282.26"/>
</g>
<!-- n7 -->
<g id="node4" class="node">
<title>n7</title>
<ellipse fill="none" stroke="black" cx="106.29" cy="-224.12" rx="23" ry="23"/>
<text text-anchor="middle" x="106.29" y="-220.42" font-family="Times,serif" font-size="14.00">n7</text>
</g>
<!-- n7&#45;&#45;n9 -->
<g id="edge5" class="edge">
<title>n7&#45;&#45;n9</title>
<path fill="none" stroke="black" d="M91.35,-241.37C79.39,-255.17 62.7,-274.44 50.75,-288.24"/>
</g>
<!-- n7&#45;&#45;n10 -->
<g id="edge4" class="edge">
<title>n7&#45;&#45;n10</title>
<path fill="none" stroke="black" d="M117.37,-244.35C123.9,-256.28 132.22,-271.48 139.18,-284.2"/>
</g>
<!-- n7&#45;&#45;n8 -->
<g id="edge6" class="edge">
<title>n7&#45;&#45;n8</title>
<path fill="none" stroke="black" d="M101.57,-201.72C96.72,-178.67 89.19,-142.94 84.32,-119.81"/>
</g>
<!-- n6 -->
<g id="node5" class="node">
<title>n6</title>
<ellipse fill="none" stroke="black" cx="197.59" cy="-240.37" rx="23" ry="23"/>
<text text-anchor="middle" x="197.59" y="-236.67" font-family="Times,serif" font-size="14.00">n6</text>
</g>
<!-- n6&#45;&#45;n9 -->
<g id="edge8" class="edge">
<title>n6&#45;&#45;n9</title>
<path fill="none" stroke="black" d="M176.44,-248.88C145.44,-261.35 87.98,-284.48 56.98,-296.95"/>
</g>
<!-- n6&#45;&#45;n10 -->
<g id="edge7" class="edge">
<title>n6&#45;&#45;n10</title>
<path fill="none" stroke="black" d="M185.18,-259.62C180.02,-267.61 173.99,-276.97 168.55,-285.4"/>
</g>
<!-- n6&#45;&#45;n8 -->
<g id="edge9" class="edge">
<title>n6&#45;&#45;n8</title>
<path fill="none" stroke="black" d="M183.12,-222.81C160.46,-195.34 116.88,-142.47 94.15,-114.91"/>
</g>
<!-- n6&#45;&#45;n7 -->
<g id="edge10" class="edge">
<title>n6&#45;&#45;n7</title>
<path fill="none" stroke="black" d="M175.02,-236.35C160.98,-233.85 142.97,-230.64 128.92,-228.14"/>
</g>
<!-- n5 -->
<g id="node6" class="node">
<title>n5</title>
<ellipse fill="none" stroke="black" cx="28.94" cy="-201.44" rx="23" ry="23"/>
<text text-anchor="middle" x="28.94" y="-197.74" font-family="Times,serif" font-size="14.00">n5</text>
</g>
<!-- n5&#45;&#45;n9 -->
<g id="edge12" class="edge">
<title>n5&#45;&#45;n9</title>
<path fill="none" stroke="black" d="M30.45,-224.27C31.6,-241.61 33.17,-265.36 34.32,-282.69"/>
</g>
<!-- n5&#45;&#45;n10 -->
<g id="edge11" class="edge">
<title>n5&#45;&#45;n10</title>
<path fill="none" stroke="black" d="M46.19,-216.46C68.43,-235.83 107.12,-269.51 131.33,-290.59"/>
</g>
<!-- n5&#45;&#45;n8 -->
<g id="edge13" class="edge">
<title>n5&#45;&#45;n8</title>
<path fill="none" stroke="black" d="M38.94,-180.84C47.82,-162.57 60.71,-136.02 69.58,-117.76"/>
</g>
<!-- n5&#45;&#45;n7 -->
<g id="edge14" class="edge">
<title>n5&#45;&#45;n7</title>
<path fill="none" stroke="black" d="M50.9,-207.87C61.35,-210.94 73.82,-214.59 84.28,-217.66"/>
</g>
<!-- n5&#45;&#45;n6 -->
<g id="edge15" class="edge">
<title>n5&#45;&#45;n6</title>
<path fill="none" stroke="black" d="M51.33,-206.6C83.68,-214.07 143.12,-227.79 175.37,-235.24"/>
</g>
<!-- n4 -->
<g id="node7" class="node">
<title>n4</title>
<ellipse fill="none" stroke="black" cx="22.75" cy="-133.29" rx="23" ry="23"/>
<text text-anchor="middle" x="22.75" y="-129.59" font-family="Times,serif" font-size="14.00">n4</text>
</g>
<!-- n4&#45;&#45;n9 -->
<g id="edge17" class="edge">
<title>n4&#45;&#45;n9</title>
<path fill="none" stroke="black" d="M24.48,-156.15C26.99,-189.18 31.6,-249.86 34.1,-282.78"/>
</g>
<!-- n4&#45;&#45;n10 -->
<g id="edge16" class="edge">
<title>n4&#45;&#45;n10</title>
<path fill="none" stroke="black" d="M36.44,-151.81C60.35,-184.15 109.65,-250.83 135.82,-286.22"/>
</g>
<!-- n4&#45;&#45;n8 -->
<g id="edge18" class="edge">
<title>n4&#45;&#45;n8</title>
<path fill="none" stroke="black" d="M41.98,-121.08C47.91,-117.31 54.43,-113.18 60.35,-109.41"/>
</g>
<!-- n4&#45;&#45;n7 -->
<g id="edge19" class="edge">
<title>n4&#45;&#45;n7</title>
<path fill="none" stroke="black" d="M38.46,-150.37C53.4,-166.61 75.74,-190.9 90.65,-207.11"/>
</g>
<!-- n4&#45;&#45;n6 -->
<g id="edge20" class="edge">
<title>n4&#45;&#45;n6</title>
<path fill="none" stroke="black" d="M42.46,-145.37C76.13,-165.98 144.33,-207.75 177.95,-228.34"/>
</g>
<!-- n4&#45;&#45;n5 -->
<g id="edge21" class="edge">
<title>n4&#45;&#45;n5</title>
<path fill="none" stroke="black" d="M24.81,-155.98C25.47,-163.26 26.2,-171.32 26.87,-178.61"/>
</g>
<!-- n3 -->
<g id="node8" class="node">
<title>n3</title>
<ellipse fill="none" stroke="black" cx="232.81" cy="-186.87" rx="23" ry="23"/>
<text text-anchor="middle" x="232.81" y="-183.17" font-family="Times,serif" font-size="14.00">n3</text>
</g>
<!-- n3&#45;&#45;n9 -->
<g id="edge23" class="edge">
<title>n3&#45;&#45;n9</title>
<path fill="none" stroke="black" d="M213.21,-198.68C175.45,-221.41 93.05,-271.02 55.35,-293.71"/>
</g>
<!-- n3&#45;&#45;n10 -->
<g id="edge22" class="edge">
<title>n3&#45;&#45;n10</title>
<path fill="none" stroke="black" d="M220.35,-206.03C206.41,-227.45 183.81,-262.17 168.69,-285.41"/>
</g>
<!-- n3&#45;&#45;n8 -->
<g id="edge24" class="edge">
<title>n3&#45;&#45;n8</title>
<path fill="none" stroke="black" d="M213.09,-175.33C183.67,-158.12 128.59,-125.9 99.21,-108.71"/>
</g>
<!-- n3&#45;&#45;n7 -->
<g id="edge25" class="edge">
<title>n3&#45;&#45;n7</title>
<path fill="none" stroke="black" d="M210.78,-193.36C187.7,-200.15 151.65,-210.76 128.5,-217.58"/>
</g>
<!-- n3&#45;&#45;n6 -->
<g id="edge26" class="edge">
<title>n3&#45;&#45;n6</title>
<path fill="none" stroke="black" d="M220.3,-205.88C217.05,-210.81 213.56,-216.11 210.31,-221.05"/>
</g>
<!-- n3&#45;&#45;n5 -->
<g id="edge27" class="edge">
<title>n3&#45;&#45;n5</title>
<path fill="none" stroke="black" d="M209.82,-188.51C170.56,-191.32 91.05,-197 51.85,-199.8"/>
</g>
<!-- n3&#45;&#45;n4 -->
<g id="edge28" class="edge">
<title>n3&#45;&#45;n4</title>
<path fill="none" stroke="black" d="M210.73,-181.24C170.39,-170.95 85.21,-149.22 44.85,-138.93"/>
</g>
<!-- n2 -->
<g id="node9" class="node">
<title>n2</title>
<ellipse fill="none" stroke="black" cx="150.77" cy="-139.68" rx="23" ry="23"/>
<text text-anchor="middle" x="150.77" y="-135.98" font-family="Times,serif" font-size="14.00">n2</text>
</g>
<!-- n2&#45;&#45;n9 -->
<g id="edge30" class="edge">
<title>n2&#45;&#45;n9</title>
<path fill="none" stroke="black" d="M137.81,-158.38C115.73,-190.22 71.08,-254.62 48.92,-286.59"/>
</g>
<!-- n2&#45;&#45;n10 -->
<g id="edge29" class="edge">
<title>n2&#45;&#45;n10</title>
<path fill="none" stroke="black" d="M151.08,-162.58C151.48,-193.18 152.2,-247.4 152.64,-280.72"/>
</g>
<!-- n2&#45;&#45;n8 -->
<g id="edge31" class="edge">
<title>n2&#45;&#45;n8</title>
<path fill="none" stroke="black" d="M130.94,-127.85C121.06,-121.96 109.16,-114.86 99.29,-108.98"/>
</g>
<!-- n2&#45;&#45;n7 -->
<g id="edge32" class="edge">
<title>n2&#45;&#45;n7</title>
<path fill="none" stroke="black" d="M140.01,-160.12C133.01,-173.4 123.93,-190.63 116.96,-203.86"/>
</g>
<!-- n2&#45;&#45;n6 -->
<g id="edge33" class="edge">
<title>n2&#45;&#45;n6</title>
<path fill="none" stroke="black" d="M160.47,-160.54C168.51,-177.82 179.87,-202.26 187.9,-219.53"/>
</g>
<!-- n2&#45;&#45;n5 -->
<g id="edge34" class="edge">
<title>n2&#45;&#45;n5</title>
<path fill="none" stroke="black" d="M130.38,-150.02C107.89,-161.42 71.91,-179.65 49.4,-191.07"/>
</g>
<!-- n2&#45;&#45;n4 -->
<g id="edge35" class="edge">
<title>n2&#45;&#45;n4</title>
<path fill="none" stroke="black" d="M127.89,-138.54C104.73,-137.38 69.11,-135.6 45.87,-134.44"/>
</g>
<!-- n2&#45;&#45;n3 -->
<g id="edge36" class="edge">
<title>n2&#45;&#45;n3</title>
<path fill="none" stroke="black" d="M170.63,-151.1C183.44,-158.47 200.03,-168.01 212.85,-175.39"/>
</g>
<!-- n1 -->
<g id="node10" class="node">
<title>n1</title>
<ellipse fill="none" stroke="black" cx="230.82" cy="-96.3" rx="23" ry="23"/>
<text text-anchor="middle" x="230.82" y="-92.6" font-family="Times,serif" font-size="14.00">n1</text>
</g>
<!-- n1&#45;&#45;n10 -->
<g id="edge37" class="edge">
<title>n1&#45;&#45;n10</title>
<path fill="none" stroke="black" d="M222.94,-117.91C208.64,-157.08 178.5,-239.68 162.88,-282.49"/>
</g>
<!-- n1&#45;&#45;n8 -->
<g id="edge38" class="edge">
<title>n1&#45;&#45;n8</title>
<path fill="none" stroke="black" d="M207.85,-96.44C179.42,-96.61 131.28,-96.9 102.75,-97.07"/>
</g>
<!-- n1&#45;&#45;n7 -->
<g id="edge39" class="edge">
<title>n1&#45;&#45;n7</title>
<path fill="none" stroke="black" d="M214.8,-112.75C190.89,-137.29 146.13,-183.22 122.26,-207.73"/>
</g>
<!-- n1&#45;&#45;n6 -->
<g id="edge40" class="edge">
<title>n1&#45;&#45;n6</title>
<path fill="none" stroke="black" d="M225.7,-118.49C219.48,-145.49 209.02,-190.8 202.77,-217.91"/>
</g>
<!-- n1&#45;&#45;n5 -->
<g id="edge41" class="edge">
<title>n1&#45;&#45;n5</title>
<path fill="none" stroke="black" d="M210.36,-106.96C171.56,-127.16 87.77,-170.8 49.16,-190.9"/>
</g>
<!-- n1&#45;&#45;n4 -->
<g id="edge42" class="edge">
<title>n1&#45;&#45;n4</title>
<path fill="none" stroke="black" d="M208.16,-100.33C168.14,-107.44 85.39,-122.15 45.38,-129.27"/>
</g>
<!-- n1&#45;&#45;n3 -->
<g id="edge43" class="edge">
<title>n1&#45;&#45;n3</title>
<path fill="none" stroke="black" d="M231.33,-119.15C231.63,-132.88 232.01,-150.29 232.31,-164.02"/>
</g>
<!-- n1&#45;&#45;n2 -->
<g id="edge44" class="edge">
<title>n1&#45;&#45;n2</title>
<path fill="none" stroke="black" d="M210.62,-107.24C198.49,-113.82 183.1,-122.16 170.97,-128.74"/>
</g>
<!-- n0 -->
<g id="node11" class="node">
<title>n0</title>
<ellipse fill="none" stroke="black" cx="142.21" cy="-22.75" rx="23" ry="23"/>
<text text-anchor="middle" x="142.21" y="-19.05" font-family="Times,serif" font-size="14.00">n0</text>
</g>
<!-- n0&#45;&#45;n8 -->
<g id="edge45" class="edge">
<title>n0&#45;&#45;n8</title>
<path fill="none" stroke="black" d="M127.37,-40.4C117.38,-52.27 104.27,-67.85 94.3,-79.69"/>
</g>
<!-- n0&#45;&#45;n7 -->
<g id="edge46" class="edge">
<title>n0&#45;&#45;n7</title>
<path fill="none" stroke="black" d="M138.16,-45.46C131.24,-84.23 117.23,-162.77 110.33,-201.49"/>
</g>
<!-- n0&#45;&#45;n6 -->
<g id="edge47" class="edge">
<title>n0&#45;&#45;n6</title>
<path fill="none" stroke="black" d="M147.83,-44.81C158.44,-86.52 181.33,-176.49 191.96,-218.24"/>
</g>
<!-- n0&#45;&#45;n5 -->
<g id="edge48" class="edge">
<title>n0&#45;&#45;n5</title>
<path fill="none" stroke="black" d="M129.87,-42.21C108.09,-76.58 63.04,-147.64 41.26,-182"/>
</g>
<!-- n0&#45;&#45;n4 -->
<g id="edge49" class="edge">
<title>n0&#45;&#45;n4</title>
<path fill="none" stroke="black" d="M125.35,-38.35C102.58,-59.42 62.25,-96.74 39.53,-117.77"/>
</g>
<!-- n0&#45;&#45;n3 -->
<g id="edge50" class="edge">
<title>n0&#45;&#45;n3</title>
<path fill="none" stroke="black" d="M153.32,-42.87C170.76,-74.46 204.35,-135.31 221.76,-166.84"/>
</g>
<!-- n0&#45;&#45;n2 -->
<g id="edge51" class="edge">
<title>n0&#45;&#45;n2</title>
<path fill="none" stroke="black" d="M143.88,-45.57C145.39,-66.18 147.6,-96.33 149.11,-116.91"/>
</g>
<!-- n0&#45;&#45;n1 -->
<g id="edge52" class="edge">
<title>n0&#45;&#45;n1</title>
<path fill="none" stroke="black" d="M159.72,-37.28C175.15,-50.09 197.54,-68.67 213.05,-81.54"/>
</g>
</g>
</svg>
