<?xml version="1.0" standalone="yes"?>
<!-- SVG graphic -->
<svg xmlns='http://www.w3.org/2000/svg' xmlns:xlink='http://www.w3.org/1999/xlink'
width="70px" height="70px" preserveAspectRatio="xMinYMin meet" viewBox="0 0 70 70" version="1.1">
<rect x="5" y="0" width="2.5" height="2.5" fill="rgb(210,0,44)" opacity="1"/>
<rect x="10" y="0" width="2.5" height="2.5" fill="rgb(110,0,144)" opacity="1"/>
<rect x="15" y="0" width="2.5" height="2.5" fill="rgb(81,0,173)" opacity="1"/>
<rect x="20" y="0" width="2.5" height="2.5" fill="rgb(61,0,193)" opacity="1"/>
<rect x="25" y="0" width="2.5" height="2.5" fill="rgb(32,0,222)" opacity="1"/>
<rect x="30" y="0" width="2.5" height="2.5" fill="rgb(27,0,227)" opacity="1"/>
<rect x="35" y="0" width="2.5" height="2.5" fill="rgb(24,0,230)" opacity="1"/>
<rect x="40" y="0" width="2.5" height="2.5" fill="rgb(23,0,231)" opacity="1"/>
<rect x="10" y="5" width="2.5" height="2.5" fill="rgb(250,0,4)" opacity="1"/>
<rect x="15" y="5" width="2.5" height="2.5" fill="rgb(176,0,78)" opacity="1"/>
<rect x="20" y="5" width="2.5" height="2.5" fill="rgb(116,0,138)" opacity="1"/>
<rect x="25" y="5" width="2.5" height="2.5" fill="rgb(70,0,184)" opacity="1"/>
<rect x="30" y="5" width="2.5" height="2.5" fill="rgb(57,0,197)" opacity="1"/>
<rect x="35" y="5" width="2.5" height="2.5" fill="rgb(46,0,208)" opacity="1"/>
<rect x="40" y="5" width="2.5" height="2.5" fill="rgb(25,0,229)" opacity="1"/>
<rect x="50" y="5" width="2.5" height="2.5" fill="rgb(10,0,244)" opacity="1"/>
<rect x="15" y="10" width="2.5" height="2.5" fill="rgb(255,0,0)" opacity="1"/>
<rect x="20" y="10" width="2.5" height="2.5" fill="rgb(170,0,84)" opacity="1"/>
<rect x="25" y="10" width="2.5" height="2.5" fill="rgb(104,0,150)" opacity="1"/>
<rect x="30" y="10" width="2.5" height="2.5" fill="rgb(80,0,174)" opacity="1"/>
<rect x="35" y="10" width="2.5" height="2.5" fill="rgb(60,0,194)" opacity="1"/>
<rect x="40" y="10" width="2.5" height="2.5" fill="rgb(35,0,219)" opacity="1"/>
<rect x="45" y="10" width="2.5" height="2.5" fill="rgb(5,0,249)" opacity="1"/>
<rect x="50" y="10" width="2.5" height="2.5" fill="rgb(9,0,245)" opacity="1"/>
<rect x="20" y="15" width="2.5" height="2.5" fill="rgb(203,0,51)" opacity="1"/>
<rect x="25" y="15" width="2.5" height="2.5" fill="rgb(130,0,124)" opacity="1"/>
<rect x="30" y="15" width="2.5" height="2.5" fill="rgb(104,0,150)" opacity="1"/>
<rect x="35" y="15" width="2.5" height="2.5" fill="rgb(71,0,183)" opacity="1"/>
<rect x="40" y="15" width="2.5" height="2.5" fill="rgb(41,0,213)" opacity="1"/>
<rect x="45" y="15" width="2.5" height="2.5" fill="rgb(7,0,247)" opacity="1"/>
<rect x="50" y="15" width="2.5" height="2.5" fill="rgb(7,0,247)" opacity="1"/>
<rect x="25" y="20" width="2.5" height="2.5" fill="rgb(176,0,78)" opacity="1"/>
<rect x="30" y="20" width="2.5" height="2.5" fill="rgb(130,0,124)" opacity="1"/>
<rect x="35" y="20" width="2.5" height="2.5" fill="rgb(100,0,154)" opacity="1"/>
<rect x="40" y="20" width="2.5" height="2.5" fill="rgb(61,0,193)" opacity="1"/>
<rect x="45" y="20" width="2.5" height="2.5" fill="rgb(10,0,244)" opacity="1"/>
<rect x="50" y="20" width="2.5" height="2.5" fill="rgb(12,0,242)" opacity="1"/>
<rect x="30" y="25" width="2.5" height="2.5" fill="rgb(169,0,85)" opacity="1"/>
<rect x="35" y="25" width="2.5" height="2.5" fill="rgb(117,0,137)" opacity="1"/>
<rect x="40" y="25" width="2.5" height="2.5" fill="rgb(71,0,183)" opacity="1"/>
<rect x="45" y="25" width="2.5" height="2.5" fill="rgb(13,0,241)" opacity="1"/>
<rect x="50" y="25" width="2.5" height="2.5" fill="rgb(10,0,244)" opacity="1"/>
<rect x="35" y="30" width="2.5" height="2.5" fill="rgb(172,0,82)" opacity="1"/>
<rect x="40" y="30" width="2.5" height="2.5" fill="rgb(100,0,154)" opacity="1"/>
<rect x="45" y="30" width="2.5" height="2.5" fill="rgb(19,0,235)" opacity="1"/>
<rect x="50" y="30" width="2.5" height="2.5" fill="rgb(14,0,240)" opacity="1"/>
<rect x="40" y="35" width="2.5" height="2.5" fill="rgb(175,0,79)" opacity="1"/>
<rect x="45" y="35" width="2.5" height="2.5" fill="rgb(30,0,224)" opacity="1"/>
<rect x="50" y="35" width="2.5" height="2.5" fill="rgb(29,0,225)" opacity="1"/>
<rect x="45" y="40" width="2.5" height="2.5" fill="rgb(61,0,193)" opacity="1"/>
<rect x="50" y="40" width="2.5" height="2.5" fill="rgb(46,0,208)" opacity="1"/>
<rect x="50" y="45" width="2.5" height="2.5" fill="rgb(24,0,230)" opacity="1"/>
<text x="60" y="5" font-size="5" fill="black">0</text>
<text x="60" y="50" font-size="5" fill="black">11</text>
<polyline points="60,10,60,45" stroke="black" stroke-width="1" fill="none" opacity="1"/>
<text x="5" y="60" font-size="5" fill="black">0</text>
<text x="50" y="60" font-size="5" fill="black">11</text>
<polyline points="10,60,45,60" stroke="black" stroke-width="1" fill="none" opacity="1"/>
</svg>