<?xml version="1.0" standalone="yes"?>
<!-- SVG graphic -->
<svg xmlns='http://www.w3.org/2000/svg' xmlns:xlink='http://www.w3.org/1999/xlink'
 version="1.1">
<rect x="0" y="0" width="6" height="200" stroke="black" stroke-width="1" fill="blue" opacity="1" tooltip="enable"><title>(0,9299)</title></rect><rect x="6" y="100.247" width="6" height="99.7527" stroke="black" stroke-width="1" fill="blue" opacity="1" tooltip="enable"><title>(0.0397172,4638)</title></rect><rect x="12" y="119.217" width="6" height="80.7829" stroke="black" stroke-width="1" fill="blue" opacity="1" tooltip="enable"><title>(0.0794343,3756)</title></rect><rect x="18" y="132.573" width="6" height="67.4266" stroke="black" stroke-width="1" fill="blue" opacity="1" tooltip="enable"><title>(0.119152,3135)</title></rect><rect x="24" y="141.327" width="6" height="58.673" stroke="black" stroke-width="1" fill="blue" opacity="1" tooltip="enable"><title>(0.158869,2728)</title></rect><rect x="30" y="150.575" width="6" height="49.4247" stroke="black" stroke-width="1" fill="blue" opacity="1" tooltip="enable"><title>(0.198586,2298)</title></rect><rect x="36" y="157.071" width="6" height="42.9293" stroke="black" stroke-width="1" fill="blue" opacity="1" tooltip="enable"><title>(0.238303,1996)</title></rect><rect x="42" y="165.824" width="6" height="34.1757" stroke="black" stroke-width="1" fill="blue" opacity="1" tooltip="enable"><title>(0.27802,1589)</title></rect><rect x="48" y="169.782" width="6" height="30.2183" stroke="black" stroke-width="1" fill="blue" opacity="1" tooltip="enable"><title>(0.317737,1405)</title></rect><rect x="54" y="173.976" width="6" height="26.0243" stroke="black" stroke-width="1" fill="blue" opacity="1" tooltip="enable"><title>(0.357455,1210)</title></rect><rect x="60" y="179.03" width="6" height="20.97" stroke="black" stroke-width="1" fill="blue" opacity="1" tooltip="enable"><title>(0.397172,975)</title></rect><rect x="66" y="180.105" width="6" height="19.8946" stroke="black" stroke-width="1" fill="blue" opacity="1" tooltip="enable"><title>(0.436889,925)</title></rect><rect x="72" y="184.385" width="6" height="15.6146" stroke="black" stroke-width="1" fill="blue" opacity="1" tooltip="enable"><title>(0.476606,726)</title></rect><rect x="78" y="187.031" width="6" height="12.9691" stroke="black" stroke-width="1" fill="blue" opacity="1" tooltip="enable"><title>(0.516323,603)</title></rect><rect x="84" y="188.687" width="6" height="11.313" stroke="black" stroke-width="1" fill="blue" opacity="1" tooltip="enable"><title>(0.55604,526)</title></rect><rect x="90" y="190.214" width="6" height="9.786" stroke="black" stroke-width="1" fill="blue" opacity="1" tooltip="enable"><title>(0.595758,455)</title></rect><rect x="96" y="191.677" width="6" height="8.32348" stroke="black" stroke-width="1" fill="blue" opacity="1" tooltip="enable"><title>(0.635475,387)</title></rect><rect x="102" y="192.15" width="6" height="7.85031" stroke="black" stroke-width="1" fill="blue" opacity="1" tooltip="enable"><title>(0.675192,365)</title></rect><rect x="108" y="193.634" width="6" height="6.36628" stroke="black" stroke-width="1" fill="blue" opacity="1" tooltip="enable"><title>(0.714909,296)</title></rect><rect x="114" y="194.451" width="6" height="5.54898" stroke="black" stroke-width="1" fill="blue" opacity="1" tooltip="enable"><title>(0.754626,258)</title></rect><rect x="120" y="194.924" width="6" height="5.07581" stroke="black" stroke-width="1" fill="blue" opacity="1" tooltip="enable"><title>(0.794343,236)</title></rect><rect x="126" y="195.698" width="6" height="4.30154" stroke="black" stroke-width="1" fill="blue" opacity="1" tooltip="enable"><title>(0.834061,200)</title></rect><rect x="132" y="196" width="6" height="4.00043" stroke="black" stroke-width="1" fill="blue" opacity="1" tooltip="enable"><title>(0.873778,186)</title></rect><rect x="138" y="196.451" width="6" height="3.54877" stroke="black" stroke-width="1" fill="blue" opacity="1" tooltip="enable"><title>(0.913495,165)</title></rect><rect x="144" y="196.473" width="6" height="3.52726" stroke="black" stroke-width="1" fill="blue" opacity="1" tooltip="enable"><title>(0.953212,164)</title></rect><rect x="150" y="196.989" width="6" height="3.01108" stroke="black" stroke-width="1" fill="blue" opacity="1" tooltip="enable"><title>(0.992929,140)</title></rect><rect x="156" y="197.29" width="6" height="2.70997" stroke="black" stroke-width="1" fill="blue" opacity="1" tooltip="enable"><title>(1.03265,126)</title></rect><rect x="162" y="197.57" width="6" height="2.43037" stroke="black" stroke-width="1" fill="blue" opacity="1" tooltip="enable"><title>(1.07236,113)</title></rect><rect x="168" y="197.677" width="6" height="2.32283" stroke="black" stroke-width="1" fill="blue" opacity="1" tooltip="enable"><title>(1.11208,108)</title></rect><rect x="174" y="198.15" width="6" height="1.84966" stroke="black" stroke-width="1" fill="blue" opacity="1" tooltip="enable"><title>(1.1518,86)</title></rect><rect x="180" y="197.871" width="6" height="2.12926" stroke="black" stroke-width="1" fill="blue" opacity="1" tooltip="enable"><title>(1.19152,99)</title></rect><rect x="186" y="198.15" width="6" height="1.84966" stroke="black" stroke-width="1" fill="blue" opacity="1" tooltip="enable"><title>(1.23123,86)</title></rect><rect x="192" y="198.43" width="6" height="1.57006" stroke="black" stroke-width="1" fill="blue" opacity="1" tooltip="enable"><title>(1.27095,73)</title></rect><rect x="198" y="198.516" width="6" height="1.48403" stroke="black" stroke-width="1" fill="blue" opacity="1" tooltip="enable"><title>(1.31067,69)</title></rect><rect x="204" y="198.882" width="6" height="1.1184" stroke="black" stroke-width="1" fill="blue" opacity="1" tooltip="enable"><title>(1.35038,52)</title></rect><rect x="210" y="199.032" width="6" height="0.967846" stroke="black" stroke-width="1" fill="blue" opacity="1" tooltip="enable"><title>(1.3901,45)</title></rect><rect x="216" y="198.989" width="6" height="1.01086" stroke="black" stroke-width="1" fill="blue" opacity="1" tooltip="enable"><title>(1.42982,47)</title></rect><rect x="222" y="198.839" width="6" height="1.16142" stroke="black" stroke-width="1" fill="blue" opacity="1" tooltip="enable"><title>(1.46954,54)</title></rect><rect x="228" y="198.989" width="6" height="1.01086" stroke="black" stroke-width="1" fill="blue" opacity="1" tooltip="enable"><title>(1.50925,47)</title></rect><rect x="234" y="199.183" width="6" height="0.817292" stroke="black" stroke-width="1" fill="blue" opacity="1" tooltip="enable"><title>(1.54897,38)</title></rect><rect x="240" y="199.312" width="6" height="0.688246" stroke="black" stroke-width="1" fill="blue" opacity="1" tooltip="enable"><title>(1.58869,32)</title></rect><rect x="246" y="199.269" width="6" height="0.731261" stroke="black" stroke-width="1" fill="blue" opacity="1" tooltip="enable"><title>(1.6284,34)</title></rect><rect x="252" y="199.183" width="6" height="0.817292" stroke="black" stroke-width="1" fill="blue" opacity="1" tooltip="enable"><title>(1.66812,38)</title></rect><rect x="258" y="199.247" width="6" height="0.752769" stroke="black" stroke-width="1" fill="blue" opacity="1" tooltip="enable"><title>(1.70784,35)</title></rect><rect x="264" y="199.29" width="6" height="0.709754" stroke="black" stroke-width="1" fill="blue" opacity="1" tooltip="enable"><title>(1.74756,33)</title></rect><rect x="270" y="199.398" width="6" height="0.602215" stroke="black" stroke-width="1" fill="blue" opacity="1" tooltip="enable"><title>(1.78727,28)</title></rect><rect x="276" y="199.398" width="6" height="0.602215" stroke="black" stroke-width="1" fill="blue" opacity="1" tooltip="enable"><title>(1.82699,28)</title></rect><rect x="282" y="199.398" width="6" height="0.602215" stroke="black" stroke-width="1" fill="blue" opacity="1" tooltip="enable"><title>(1.86671,28)</title></rect><rect x="288" y="199.484" width="6" height="0.516185" stroke="black" stroke-width="1" fill="blue" opacity="1" tooltip="enable"><title>(1.90642,24)</title></rect><rect x="294" y="199.656" width="6" height="0.344123" stroke="black" stroke-width="1" fill="blue" opacity="1" tooltip="enable"><title>(1.94614,16)</title></rect><rect x="300" y="199.72" width="6" height="0.2796" stroke="black" stroke-width="1" fill="blue" opacity="1" tooltip="enable"><title>(1.98586,13)</title></rect><rect x="306" y="199.72" width="6" height="0.2796" stroke="black" stroke-width="1" fill="blue" opacity="1" tooltip="enable"><title>(2.02558,13)</title></rect><rect x="312" y="199.613" width="6" height="0.387138" stroke="black" stroke-width="1" fill="blue" opacity="1" tooltip="enable"><title>(2.06529,18)</title></rect><rect x="318" y="199.72" width="6" height="0.2796" stroke="black" stroke-width="1" fill="blue" opacity="1" tooltip="enable"><title>(2.10501,13)</title></rect><rect x="324" y="199.806" width="6" height="0.193569" stroke="black" stroke-width="1" fill="blue" opacity="1" tooltip="enable"><title>(2.14473,9)</title></rect><rect x="330" y="199.699" width="6" height="0.301108" stroke="black" stroke-width="1" fill="blue" opacity="1" tooltip="enable"><title>(2.18444,14)</title></rect><rect x="336" y="199.763" width="6" height="0.236585" stroke="black" stroke-width="1" fill="blue" opacity="1" tooltip="enable"><title>(2.22416,11)</title></rect><rect x="342" y="199.763" width="6" height="0.236585" stroke="black" stroke-width="1" fill="blue" opacity="1" tooltip="enable"><title>(2.26388,11)</title></rect><rect x="348" y="199.72" width="6" height="0.2796" stroke="black" stroke-width="1" fill="blue" opacity="1" tooltip="enable"><title>(2.3036,13)</title></rect><rect x="354" y="199.763" width="6" height="0.236585" stroke="black" stroke-width="1" fill="blue" opacity="1" tooltip="enable"><title>(2.34331,11)</title></rect><rect x="360" y="199.828" width="6" height="0.172062" stroke="black" stroke-width="1" fill="blue" opacity="1" tooltip="enable"><title>(2.38303,8)</title></rect><rect x="366" y="199.72" width="6" height="0.2796" stroke="black" stroke-width="1" fill="blue" opacity="1" tooltip="enable"><title>(2.42275,13)</title></rect><rect x="372" y="199.871" width="6" height="0.129046" stroke="black" stroke-width="1" fill="blue" opacity="1" tooltip="enable"><title>(2.46246,6)</title></rect><rect x="378" y="199.871" width="6" height="0.129046" stroke="black" stroke-width="1" fill="blue" opacity="1" tooltip="enable"><title>(2.50218,6)</title></rect><rect x="384" y="199.806" width="6" height="0.193569" stroke="black" stroke-width="1" fill="blue" opacity="1" tooltip="enable"><title>(2.5419,9)</title></rect><rect x="390" y="199.871" width="6" height="0.129046" stroke="black" stroke-width="1" fill="blue" opacity="1" tooltip="enable"><title>(2.58162,6)</title></rect><rect x="396" y="199.828" width="6" height="0.172062" stroke="black" stroke-width="1" fill="blue" opacity="1" tooltip="enable"><title>(2.62133,8)</title></rect><rect x="402" y="199.828" width="6" height="0.172062" stroke="black" stroke-width="1" fill="blue" opacity="1" tooltip="enable"><title>(2.66105,8)</title></rect><rect x="408" y="199.806" width="6" height="0.193569" stroke="black" stroke-width="1" fill="blue" opacity="1" tooltip="enable"><title>(2.70077,9)</title></rect><rect x="414" y="199.849" width="6" height="0.150554" stroke="black" stroke-width="1" fill="blue" opacity="1" tooltip="enable"><title>(2.74048,7)</title></rect><rect x="420" y="199.935" width="6" height="0.0645231" stroke="black" stroke-width="1" fill="blue" opacity="1" tooltip="enable"><title>(2.7802,3)</title></rect><rect x="426" y="199.871" width="6" height="0.129046" stroke="black" stroke-width="1" fill="blue" opacity="1" tooltip="enable"><title>(2.81992,6)</title></rect><rect x="432" y="199.935" width="6" height="0.0645231" stroke="black" stroke-width="1" fill="blue" opacity="1" tooltip="enable"><title>(2.85964,3)</title></rect><rect x="438" y="199.892" width="6" height="0.107538" stroke="black" stroke-width="1" fill="blue" opacity="1" tooltip="enable"><title>(2.89935,5)</title></rect><rect x="444" y="199.892" width="6" height="0.107538" stroke="black" stroke-width="1" fill="blue" opacity="1" tooltip="enable"><title>(2.93907,5)</title></rect><rect x="450" y="199.978" width="6" height="0.0215077" stroke="black" stroke-width="1" fill="blue" opacity="1" tooltip="enable"><title>(2.97879,1)</title></rect><rect x="456" y="199.849" width="6" height="0.150554" stroke="black" stroke-width="1" fill="blue" opacity="1" tooltip="enable"><title>(3.01851,7)</title></rect><rect x="462" y="199.935" width="6" height="0.0645231" stroke="black" stroke-width="1" fill="blue" opacity="1" tooltip="enable"><title>(3.05822,3)</title></rect><rect x="468" y="199.935" width="6" height="0.0645231" stroke="black" stroke-width="1" fill="blue" opacity="1" tooltip="enable"><title>(3.09794,3)</title></rect><rect x="474" y="199.892" width="6" height="0.107538" stroke="black" stroke-width="1" fill="blue" opacity="1" tooltip="enable"><title>(3.13766,5)</title></rect><rect x="480" y="199.871" width="6" height="0.129046" stroke="black" stroke-width="1" fill="blue" opacity="1" tooltip="enable"><title>(3.17737,6)</title></rect><rect x="486" y="199.914" width="6" height="0.0860308" stroke="black" stroke-width="1" fill="blue" opacity="1" tooltip="enable"><title>(3.21709,4)</title></rect><rect x="492" y="199.957" width="6" height="0.0430154" stroke="black" stroke-width="1" fill="blue" opacity="1" tooltip="enable"><title>(3.25681,2)</title></rect><rect x="498" y="199.957" width="6" height="0.0430154" stroke="black" stroke-width="1" fill="blue" opacity="1" tooltip="enable"><title>(3.29653,2)</title></rect><rect x="504" y="199.957" width="6" height="0.0430154" stroke="black" stroke-width="1" fill="blue" opacity="1" tooltip="enable"><title>(3.33624,2)</title></rect><rect x="510" y="199.871" width="6" height="0.129046" stroke="black" stroke-width="1" fill="blue" opacity="1" tooltip="enable"><title>(3.37596,6)</title></rect><rect x="516" y="199.935" width="6" height="0.0645231" stroke="black" stroke-width="1" fill="blue" opacity="1" tooltip="enable"><title>(3.41568,3)</title></rect><rect x="522" y="200" width="6" height="0" stroke="black" stroke-width="1" fill="blue" opacity="1" tooltip="enable"><title>(3.45539,0)</title></rect><rect x="528" y="199.935" width="6" height="0.0645231" stroke="black" stroke-width="1" fill="blue" opacity="1" tooltip="enable"><title>(3.49511,3)</title></rect><rect x="534" y="199.935" width="6" height="0.0645231" stroke="black" stroke-width="1" fill="blue" opacity="1" tooltip="enable"><title>(3.53483,3)</title></rect><rect x="540" y="199.978" width="6" height="0.0215077" stroke="black" stroke-width="1" fill="blue" opacity="1" tooltip="enable"><title>(3.57455,1)</title></rect><rect x="546" y="199.935" width="6" height="0.0645231" stroke="black" stroke-width="1" fill="blue" opacity="1" tooltip="enable"><title>(3.61426,3)</title></rect><rect x="552" y="199.978" width="6" height="0.0215077" stroke="black" stroke-width="1" fill="blue" opacity="1" tooltip="enable"><title>(3.65398,1)</title></rect><rect x="558" y="200" width="6" height="0" stroke="black" stroke-width="1" fill="blue" opacity="1" tooltip="enable"><title>(3.6937,0)</title></rect><rect x="564" y="199.957" width="6" height="0.0430154" stroke="black" stroke-width="1" fill="blue" opacity="1" tooltip="enable"><title>(3.73341,2)</title></rect><rect x="570" y="199.935" width="6" height="0.0645231" stroke="black" stroke-width="1" fill="blue" opacity="1" tooltip="enable"><title>(3.77313,3)</title></rect><rect x="576" y="199.957" width="6" height="0.0430154" stroke="black" stroke-width="1" fill="blue" opacity="1" tooltip="enable"><title>(3.81285,2)</title></rect><rect x="582" y="199.978" width="6" height="0.0215077" stroke="black" stroke-width="1" fill="blue" opacity="1" tooltip="enable"><title>(3.85257,1)</title></rect><rect x="588" y="200" width="6" height="0" stroke="black" stroke-width="1" fill="blue" opacity="1" tooltip="enable"><title>(3.89228,0)</title></rect><rect x="594" y="200" width="6" height="0" stroke="black" stroke-width="1" fill="blue" opacity="1" tooltip="enable"><title>(3.932,0)</title></rect><text x="30" y="240" font-size="20" fill="black">0</text>
<text x="600" y="240" font-size="20" fill="black">3.97172</text>
<polyline points="0,220,600,220" stroke="black" stroke-width="1" fill="none" opacity="1"/>
<text x="720" y="20" font-size="20" fill="black">9299</text>
<text x="720" y="200" font-size="20" fill="black">0</text>
<polyline points="660,0,660,200" stroke="black" stroke-width="1" fill="none" opacity="1"/>
</svg>